<svg width="263" height="104" viewBox="0 0 263 104" fill="none" xmlns="http://www.w3.org/2000/svg">
<path d="M262.818 85.8291H0.181641V85.9604H262.818V85.8291Z" fill="#EBEBEB"/>
<path d="M236.503 94.2812H219.105V94.4126H236.503V94.2812Z" fill="#EBEBEB"/>
<path d="M212.491 94.2812H175.297V94.4126H212.491V94.2812Z" fill="#EBEBEB"/>
<path d="M154.785 89.4062H144.705V89.5376H154.785V89.4062Z" fill="#EBEBEB"/>
<path d="M45.7489 90.2891H27.7373V90.4204H45.7489V90.2891Z" fill="#EBEBEB"/>
<path d="M83.1746 90.2891H50.4238V90.4204H83.1746V90.2891Z" fill="#EBEBEB"/>
<path d="M118.442 92.5068H99.1064V92.6382H118.442V92.5068Z" fill="#EBEBEB"/>
<path d="M107.988 82.7041H119.371V33.3442H107.988V82.7041Z" fill="#F0F0F0"/>
<path d="M51.5165 48.6194H87.9442C88.2378 48.618 88.5189 48.5008 88.7264 48.2932C88.934 48.0857 89.0512 47.8046 89.0526 47.5111C89.0512 47.217 88.9342 46.9354 88.7268 46.727C88.5193 46.5186 88.2382 46.4002 87.9442 46.3975H51.5165C51.2225 46.4002 50.9414 46.5186 50.734 46.727C50.5266 46.9354 50.4096 47.217 50.4082 47.5111C50.4096 47.8046 50.5268 48.0857 50.7344 48.2932C50.9419 48.5008 51.223 48.618 51.5165 48.6194Z" fill="#F5F5F5"/>
<path d="M51.5165 69.6408H87.9442C88.2378 69.6395 88.5189 69.5222 88.7264 69.3147C88.934 69.1071 89.0512 68.826 89.0526 68.5325C89.0526 68.2381 88.936 67.9556 88.7283 67.747C88.5206 67.5383 88.2387 67.4203 87.9442 67.4189H51.5165C51.2221 67.4203 50.9402 67.5383 50.7325 67.747C50.5248 67.9556 50.4082 68.2381 50.4082 68.5325C50.4096 68.826 50.5268 69.1071 50.7344 69.3147C50.9419 69.5222 51.223 69.6395 51.5165 69.6408Z" fill="#F5F5F5"/>
<path d="M167.785 71.5684H101.748V75.8441H167.785V71.5684Z" fill="#EBEBEB"/>
<path d="M179.667 57.3066H113.63V61.5824H179.667V57.3066Z" fill="#EBEBEB"/>
<path d="M191.544 43.0518H125.507V47.3275H191.544V43.0518Z" fill="#EBEBEB"/>
<path d="M203.426 28.79H137.389V33.0658H203.426V28.79Z" fill="#EBEBEB"/>
<path d="M215.302 14.5293H149.265V18.805H215.302V14.5293Z" fill="#EBEBEB"/>
<path d="M161.881 5.54111C162.345 4.27592 163.181 3.18072 164.278 2.39969C165.376 1.61866 166.685 1.18841 168.032 1.16558H210.08C210.807 1.13841 211.531 1.27102 212.201 1.55406C212.87 1.8371 213.47 2.26366 213.957 2.80365C214.443 3.34364 214.806 3.9839 215.018 4.67926C215.231 5.37462 215.288 6.10812 215.186 6.82803L204.323 97.9682C204.093 99.5198 203.318 100.939 202.137 101.971C200.956 103.004 199.447 103.583 197.878 103.604H64.4589C63.7348 103.632 63.0135 103.501 62.3456 103.219C61.6778 102.938 61.0797 102.514 60.5935 101.977C60.1072 101.439 59.7447 100.802 59.5313 100.109C59.318 99.4169 59.259 98.686 59.3585 97.9682L68.4668 21.3939C68.6973 19.8423 69.4723 18.4233 70.653 17.3907C71.8338 16.3582 73.3434 15.7793 74.9119 15.7577H147.515C150.661 15.704 153.717 14.6994 156.282 12.8758C158.846 11.0523 160.798 8.49524 161.881 5.54111Z" fill="#D1D5DB"/>
<path d="M61.7588 99.4088H201.172L209.114 5.60547H69.7062L61.7588 99.4088Z" fill="#F0F0F0"/>
<path d="M61.7588 99.4088H201.172L206.918 5.60547H69.7062L61.7588 99.4088Z" fill="#E0E0E0"/>
<path d="M61.7588 99.4076H201.172L205.962 2.62598H66.5545L61.7588 99.4076Z" fill="#F0F0F0"/>
<path d="M61.7588 99.4076H201.172L203.068 2.62598H66.5545L61.7588 99.4076Z" fill="#E0E0E0"/>
<path d="M61.7588 99.408H201.172L202.002 0H62.594L61.7588 99.408Z" fill="#F0F0F0"/>
<path d="M61.7591 99.4084H201.172L198.309 1.88086H59.7998L61.7591 99.4084Z" fill="#E0E0E0"/>
<path d="M61.7599 99.4076H201.173L197.034 2.62598H57.626L61.7599 99.4076Z" fill="#F0F0F0"/>
<path d="M61.7588 99.4083H201.172L194.579 4.08691H55.1719L61.7588 99.4083Z" fill="#E0E0E0"/>
<path d="M61.7595 99.4086H201.172L193.53 4.90137H54.1221L61.7595 99.4086Z" fill="#F0F0F0"/>
<path d="M131.573 11.4611C131.581 10.8516 131.711 10.2499 131.957 9.6919C132.202 9.13386 132.557 8.63085 133 8.2128C133.444 7.79475 133.967 7.47021 134.538 7.2585C135.11 7.04679 135.718 6.95223 136.327 6.98046H178.375C180.003 7.04296 181.564 7.6443 182.814 8.69008C184.063 9.73586 184.929 11.1669 185.277 12.7585L201.892 97.8528C202.511 101.041 200.431 103.631 197.243 103.631H63.8235C60.6299 103.631 57.5202 101.041 56.9162 97.8528L43.2118 27.7025C42.592 24.5141 44.6721 21.9245 47.8605 21.9245H120.469C126.772 21.9245 131.358 17.5857 131.573 11.4611Z" fill="#D1D5DB"/>
<path opacity="0.2" d="M131.573 11.4611C131.581 10.8516 131.711 10.2499 131.957 9.6919C132.202 9.13386 132.557 8.63085 133 8.2128C133.444 7.79475 133.967 7.47021 134.538 7.2585C135.11 7.04679 135.718 6.95223 136.327 6.98046H178.375C180.003 7.04296 181.564 7.6443 182.814 8.69008C184.063 9.73586 184.929 11.1669 185.277 12.7585L201.892 97.8528C202.511 101.041 200.431 103.631 197.243 103.631H63.8235C60.6299 103.631 57.5202 101.041 56.9162 97.8528L43.2118 27.7025C42.592 24.5141 44.6721 21.9245 47.8605 21.9245H120.469C126.772 21.9245 131.358 17.5857 131.573 11.4611Z" fill="black"/>
<path d="M113.33 55.9053C112.806 55.9243 112.31 56.1482 111.949 56.5289C111.589 56.9096 111.392 57.4166 111.402 57.9408C111.411 58.4651 111.626 58.9647 112 59.332C112.374 59.6994 112.878 59.9053 113.402 59.9053C113.926 59.9053 114.43 59.6994 114.804 59.332C115.178 58.9647 115.393 58.4651 115.402 57.9408C115.412 57.4166 115.215 56.9096 114.855 56.5289C114.494 56.1482 113.998 55.9243 113.474 55.9053" fill="#0E1919"/>
<path d="M132.539 55.9053C132.015 55.9252 131.52 56.1498 131.16 56.5308C130.801 56.9118 130.605 57.4187 130.615 57.9426C130.625 58.4666 130.84 58.9657 131.214 59.3327C131.588 59.6997 132.091 59.9053 132.615 59.9053C133.139 59.9053 133.642 59.6997 134.016 59.3327C134.39 58.9657 134.605 58.4666 134.615 57.9426C134.625 57.4187 134.429 56.9118 134.07 56.5308C133.71 56.1498 133.215 55.9252 132.691 55.9053" fill="#0E1919"/>
<path d="M133.336 74.9062C133 73.6257 132.456 72.4094 131.724 71.3065C130.91 70.1269 129.865 69.1251 128.652 68.3617C127.188 67.3906 125.482 66.8501 123.726 66.802C121.97 66.7538 120.236 67.1998 118.722 68.0893C117.471 68.7876 116.373 69.7298 115.493 70.8601C114.701 71.9223 114.091 73.1097 113.69 74.3729C113.695 74.2787 113.71 74.1853 113.737 74.0947C113.792 73.8335 113.864 73.576 113.951 73.3237C114.269 72.3926 114.733 71.518 115.325 70.7326C116.199 69.5494 117.311 68.5621 118.589 67.8342C120.142 66.9069 121.927 66.4406 123.736 66.4899C125.545 66.5391 127.302 67.1019 128.803 68.1125C130.037 68.9056 131.091 69.9482 131.898 71.1731C132.449 71.9907 132.865 72.8908 133.133 73.8396C133.204 74.097 133.26 74.3583 133.301 74.6222C133.321 74.7156 133.332 74.8107 133.336 74.9062Z" fill="#0E1919"/>
</svg>
