<svg width="290" height="260" viewBox="0 0 290 260" fill="none" xmlns="http://www.w3.org/2000/svg">
<rect width="290" height="260" rx="16" fill="#F3F8F8"/>
<rect x="114" y="21.5" width="56" height="56" rx="12.5286" fill="white"/>
<rect x="114" y="21.5" width="56" height="56" rx="12.5286" stroke="#F3F4F6"/>
<path d="M130.974 35.7367C131.155 35.9177 131.299 36.1326 131.397 36.3692C131.495 36.6058 131.545 36.8594 131.545 37.1155C131.545 37.3716 131.495 37.6252 131.397 37.8618C131.299 38.0984 131.155 38.3133 130.974 38.4943C128.049 41.4192 126.406 45.3859 126.406 49.5219C126.406 53.658 128.049 57.6247 130.974 60.5496C131.16 60.7294 131.308 60.9444 131.41 61.1822C131.513 61.4199 131.566 61.6757 131.569 61.9344C131.571 62.1932 131.522 62.4498 131.424 62.6893C131.326 62.9289 131.181 63.1465 130.998 63.3294C130.815 63.5124 130.597 63.6571 130.358 63.7551C130.118 63.8531 129.862 63.9024 129.603 63.9002C129.344 63.8979 129.088 63.8442 128.851 63.742C128.613 63.6399 128.398 63.4914 128.218 63.3053C120.604 55.693 120.604 43.3489 128.218 35.7367C128.583 35.3713 129.079 35.1661 129.596 35.1661C130.113 35.1661 130.608 35.3713 130.974 35.7367ZM155.787 35.7367C163.399 43.3509 163.399 55.693 155.787 63.3053C155.421 63.671 154.925 63.8765 154.408 63.8767C153.891 63.8769 153.396 63.6717 153.03 63.3063C152.664 62.9408 152.459 62.4451 152.459 61.9281C152.458 61.4111 152.664 60.9153 153.029 60.5496C155.953 57.6247 157.596 53.658 157.596 49.5219C157.596 45.3859 155.953 41.4192 153.029 38.4943C152.663 38.1286 152.458 37.6326 152.458 37.1155C152.458 36.5983 152.663 36.1023 153.029 35.7367C153.395 35.371 153.891 35.1655 154.408 35.1655C154.925 35.1655 155.421 35.371 155.787 35.7367ZM136.756 41.3377C137.121 41.7032 137.327 42.1988 137.327 42.7155C137.327 43.2323 137.121 43.7279 136.756 44.0934C136.046 44.8028 135.484 45.645 135.1 46.5719C134.716 47.4988 134.518 48.4923 134.518 49.4956C134.518 50.4989 134.716 51.4924 135.1 52.4193C135.484 53.3463 136.046 54.1885 136.756 54.8979C136.937 55.079 137.08 55.2939 137.178 55.5304C137.276 55.7669 137.326 56.0204 137.326 56.2764C137.326 56.5324 137.276 56.7859 137.178 57.0223C137.08 57.2588 136.936 57.4736 136.755 57.6545C136.574 57.8355 136.359 57.979 136.122 58.0769C135.886 58.1747 135.632 58.2251 135.376 58.225C135.12 58.2249 134.867 58.1744 134.631 58.0763C134.394 57.9783 134.179 57.8346 133.998 57.6536C131.835 55.4899 130.619 52.5554 130.619 49.4956C130.619 46.4358 131.835 43.5013 133.998 41.3377C134.179 41.1565 134.394 41.0127 134.631 40.9147C134.867 40.8166 135.121 40.7661 135.377 40.7661C135.633 40.7661 135.887 40.8166 136.123 40.9147C136.36 41.0127 136.575 41.1565 136.756 41.3377ZM150.316 41.3377C152.48 43.5013 153.695 46.4358 153.695 49.4956C153.695 52.5554 152.48 55.4899 150.316 57.6536C149.949 58.0086 149.456 58.205 148.945 58.2006C148.434 58.1961 147.946 57.9912 147.584 57.6298C147.223 57.2685 147.018 56.7797 147.013 56.2687C147.009 55.7577 147.205 55.2654 147.56 54.8979C148.27 54.1885 148.833 53.3463 149.217 52.4193C149.601 51.4924 149.798 50.4989 149.798 49.4956C149.798 48.4923 149.601 47.4988 149.217 46.5719C148.833 45.645 148.27 44.8028 147.56 44.0934C147.205 43.7258 147.009 43.2335 147.013 42.7225C147.018 42.2116 147.223 41.7228 147.584 41.3614C147.946 41.0001 148.434 40.7951 148.945 40.7907C149.456 40.7863 149.949 40.9827 150.316 41.3377ZM142.158 46.736C142.542 46.736 142.922 46.8117 143.277 46.9586C143.632 47.1055 143.954 47.3208 144.225 47.5923C144.497 47.8637 144.712 48.186 144.859 48.5406C145.006 48.8953 145.081 49.2754 145.081 49.6593C145.081 50.0432 145.006 50.4234 144.859 50.778C144.712 51.1327 144.497 51.455 144.225 51.7264C143.954 51.9979 143.632 52.2132 143.277 52.3601C142.922 52.507 142.542 52.5826 142.158 52.5826C141.383 52.5826 140.639 52.2746 140.091 51.7264C139.543 51.1782 139.235 50.4346 139.235 49.6593C139.235 48.884 139.543 48.1405 140.091 47.5923C140.639 47.044 141.383 46.736 142.158 46.736Z" fill="#008688"/>
<path d="M61.5033 117H54.1633V103.1H57.0233V114.68H62.0033L61.5033 117ZM63.3945 117V106.94L66.0745 106.52V117H63.3945ZM66.3945 103.94C66.3945 104.407 66.2345 104.8 65.9145 105.12C65.5945 105.44 65.2012 105.6 64.7345 105.6C64.2812 105.6 63.8945 105.44 63.5745 105.12C63.2545 104.8 63.0945 104.407 63.0945 103.94C63.0945 103.473 63.2545 103.08 63.5745 102.76C63.9079 102.44 64.3079 102.28 64.7745 102.28C65.2279 102.28 65.6079 102.44 65.9145 102.76C66.2345 103.08 66.3945 103.473 66.3945 103.94ZM72.9228 117H70.7028L66.9828 106.92L69.7228 106.58L71.2028 111.2C71.2561 111.373 71.3095 111.567 71.3628 111.78C71.4295 111.993 71.4895 112.213 71.5428 112.44C71.6095 112.667 71.6695 112.887 71.7228 113.1L71.8628 113.66C71.9028 113.353 71.9761 112.973 72.0828 112.52C72.1895 112.053 72.3228 111.567 72.4828 111.06L73.8628 106.76H76.6628L72.9228 117ZM79.782 112.72V112.8C79.782 113.6 79.9687 114.213 80.342 114.64C80.7154 115.067 81.2487 115.28 81.942 115.28C82.8487 115.28 83.7154 114.94 84.542 114.26L85.582 115.86C84.422 116.807 83.1354 117.28 81.722 117.28C80.9887 117.28 80.322 117.153 79.722 116.9C79.122 116.647 78.6087 116.293 78.182 115.84C77.7687 115.373 77.4487 114.813 77.222 114.16C76.9954 113.507 76.882 112.78 76.882 111.98C76.882 111.06 76.982 110.28 77.182 109.64C77.382 109 77.7087 108.427 78.162 107.92C78.5887 107.453 79.062 107.107 79.582 106.88C80.102 106.653 80.702 106.54 81.382 106.54C81.982 106.54 82.542 106.633 83.062 106.82C83.582 107.007 84.0087 107.273 84.342 107.62C84.8087 108.1 85.1487 108.7 85.362 109.42C85.5887 110.127 85.702 111.02 85.702 112.1V112.72H79.782ZM82.922 110.64C82.922 110.253 82.8954 109.947 82.842 109.72C82.802 109.493 82.722 109.287 82.602 109.1C82.3354 108.7 81.942 108.5 81.422 108.5C80.9154 108.5 80.522 108.693 80.242 109.08C79.962 109.453 79.822 110 79.822 110.72V110.76H82.922V110.64ZM98.9867 115.84C98.7867 116.04 98.6267 116.193 98.5067 116.3C98.3867 116.393 98.2334 116.493 98.0467 116.6C97.6867 116.813 97.3001 116.973 96.8867 117.08C96.4867 117.187 96.0401 117.24 95.5467 117.24C94.1334 117.24 93.0334 116.78 92.2467 115.86C91.4734 114.927 91.0867 113.627 91.0867 111.96C91.0867 110.773 91.2867 109.793 91.6867 109.02C92.0867 108.233 92.5867 107.633 93.1867 107.22C93.5334 106.993 93.9334 106.813 94.3867 106.68C94.8534 106.533 95.3001 106.46 95.7267 106.46C96.0734 106.46 96.4201 106.5 96.7667 106.58C97.1134 106.66 97.4267 106.773 97.7067 106.92C97.8934 107.027 98.0467 107.127 98.1667 107.22C98.3001 107.313 98.4801 107.453 98.7067 107.64L97.4067 109.4C97.1401 109.147 96.8667 108.953 96.5867 108.82C96.3067 108.673 96.0401 108.6 95.7867 108.6C95.1867 108.6 94.7467 108.873 94.4667 109.42C94.1867 109.953 94.0467 110.827 94.0467 112.04C94.0467 112.72 94.0867 113.267 94.1667 113.68C94.2601 114.08 94.3934 114.393 94.5667 114.62C94.8734 115.007 95.2734 115.2 95.7667 115.2C96.3534 115.2 96.9667 114.92 97.6067 114.36L97.7667 114.22L98.9867 115.84ZM104.806 116.96C104.326 117.147 103.793 117.24 103.206 117.24C102.633 117.24 102.133 117.113 101.706 116.86C101.279 116.607 100.986 116.267 100.826 115.84C100.773 115.707 100.733 115.58 100.706 115.46C100.679 115.34 100.653 115.2 100.626 115.04C100.613 114.88 100.599 114.68 100.586 114.44C100.586 114.2 100.586 113.9 100.586 113.54V105.9C100.586 105.22 100.573 104.653 100.546 104.2C100.533 103.747 100.499 103.287 100.446 102.82L103.186 102.2C103.239 102.48 103.273 102.813 103.286 103.2C103.313 103.587 103.326 104.14 103.326 104.86V112.84C103.326 113.28 103.326 113.633 103.326 113.9C103.339 114.167 103.346 114.38 103.346 114.54C103.359 114.7 103.379 114.82 103.406 114.9C103.433 114.98 103.466 115.053 103.506 115.12C103.613 115.307 103.793 115.4 104.046 115.4H104.186C104.226 115.4 104.279 115.387 104.346 115.36L104.806 116.96ZM113.046 117.52C112.74 117.387 112.453 117.213 112.186 117C111.933 116.787 111.74 116.547 111.606 116.28C111.5 116.387 111.393 116.487 111.286 116.58C111.193 116.673 111.093 116.753 110.986 116.82C110.466 117.193 109.78 117.38 108.926 117.38C107.78 117.38 106.906 117.107 106.306 116.56C105.706 116 105.406 115.207 105.406 114.18C105.406 112.967 105.813 112.08 106.626 111.52C107.453 110.947 108.686 110.66 110.326 110.66H110.626C110.72 110.66 110.82 110.667 110.926 110.68V110.26C110.926 109.687 110.846 109.293 110.686 109.08C110.54 108.853 110.22 108.74 109.726 108.74C109.3 108.74 108.84 108.84 108.346 109.04C107.853 109.24 107.326 109.527 106.766 109.9L105.626 107.98C105.893 107.807 106.146 107.66 106.386 107.54C106.626 107.42 106.926 107.287 107.286 107.14C107.793 106.927 108.266 106.773 108.706 106.68C109.16 106.587 109.62 106.54 110.086 106.54C110.953 106.54 111.666 106.693 112.226 107C112.8 107.307 113.186 107.747 113.386 108.32C113.426 108.427 113.453 108.533 113.466 108.64C113.493 108.733 113.513 108.847 113.526 108.98C113.553 109.113 113.566 109.273 113.566 109.46V110.16L113.506 113.6C113.506 113.88 113.513 114.127 113.526 114.34C113.54 114.54 113.58 114.727 113.646 114.9C113.713 115.073 113.806 115.24 113.926 115.4C114.06 115.547 114.24 115.707 114.466 115.88L113.046 117.52ZM110.766 112.52C109.833 112.52 109.18 112.627 108.806 112.84C108.446 113.053 108.266 113.467 108.266 114.08C108.266 114.48 108.373 114.807 108.586 115.06C108.813 115.3 109.1 115.42 109.446 115.42C109.7 115.42 109.946 115.36 110.186 115.24C110.426 115.12 110.646 114.947 110.846 114.72L110.886 112.52H110.766ZM123.68 113.76C123.68 114.293 123.573 114.78 123.36 115.22C123.147 115.647 122.847 116.02 122.46 116.34C122.087 116.647 121.627 116.887 121.08 117.06C120.547 117.233 119.953 117.32 119.3 117.32C118.047 117.32 116.667 116.927 115.16 116.14L116.12 114.18C116.32 114.3 116.553 114.433 116.82 114.58C117.1 114.713 117.387 114.84 117.68 114.96C117.987 115.067 118.293 115.16 118.6 115.24C118.92 115.307 119.227 115.34 119.52 115.34C119.907 115.34 120.227 115.233 120.48 115.02C120.747 114.793 120.88 114.513 120.88 114.18C120.88 113.833 120.753 113.567 120.5 113.38C120.247 113.18 119.847 113.027 119.3 112.92L118.1 112.7C117.753 112.633 117.4 112.5 117.04 112.3C116.68 112.1 116.407 111.887 116.22 111.66C116.033 111.433 115.887 111.153 115.78 110.82C115.687 110.487 115.64 110.153 115.64 109.82C115.64 109.327 115.733 108.873 115.92 108.46C116.107 108.047 116.373 107.693 116.72 107.4C117.067 107.107 117.48 106.88 117.96 106.72C118.453 106.56 119 106.48 119.6 106.48C120.427 106.48 121.127 106.587 121.7 106.8C122.273 107 122.793 107.213 123.26 107.44L122.38 109.24C121.873 108.973 121.42 108.787 121.02 108.68C120.633 108.56 120.247 108.5 119.86 108.5C119.473 108.5 119.16 108.593 118.92 108.78C118.68 108.953 118.56 109.193 118.56 109.5C118.56 109.767 118.653 109.98 118.84 110.14C119.04 110.287 119.373 110.42 119.84 110.54L121.08 110.86C121.4 110.94 121.667 111.027 121.88 111.12C122.093 111.2 122.273 111.293 122.42 111.4C122.58 111.493 122.713 111.593 122.82 111.7C122.927 111.793 123.027 111.9 123.12 112.02C123.493 112.487 123.68 113.067 123.68 113.76ZM133.009 113.76C133.009 114.293 132.902 114.78 132.689 115.22C132.476 115.647 132.176 116.02 131.789 116.34C131.416 116.647 130.956 116.887 130.409 117.06C129.876 117.233 129.282 117.32 128.629 117.32C127.376 117.32 125.996 116.927 124.489 116.14L125.449 114.18C125.649 114.3 125.882 114.433 126.149 114.58C126.429 114.713 126.716 114.84 127.009 114.96C127.316 115.067 127.622 115.16 127.929 115.24C128.249 115.307 128.556 115.34 128.849 115.34C129.236 115.34 129.556 115.233 129.809 115.02C130.076 114.793 130.209 114.513 130.209 114.18C130.209 113.833 130.082 113.567 129.829 113.38C129.576 113.18 129.176 113.027 128.629 112.92L127.429 112.7C127.082 112.633 126.729 112.5 126.369 112.3C126.009 112.1 125.736 111.887 125.549 111.66C125.362 111.433 125.216 111.153 125.109 110.82C125.016 110.487 124.969 110.153 124.969 109.82C124.969 109.327 125.062 108.873 125.249 108.46C125.436 108.047 125.702 107.693 126.049 107.4C126.396 107.107 126.809 106.88 127.289 106.72C127.782 106.56 128.329 106.48 128.929 106.48C129.756 106.48 130.456 106.587 131.029 106.8C131.602 107 132.122 107.213 132.589 107.44L131.709 109.24C131.202 108.973 130.749 108.787 130.349 108.68C129.962 108.56 129.576 108.5 129.189 108.5C128.802 108.5 128.489 108.593 128.249 108.78C128.009 108.953 127.889 109.193 127.889 109.5C127.889 109.767 127.982 109.98 128.169 110.14C128.369 110.287 128.702 110.42 129.169 110.54L130.409 110.86C130.729 110.94 130.996 111.027 131.209 111.12C131.422 111.2 131.602 111.293 131.749 111.4C131.909 111.493 132.042 111.593 132.149 111.7C132.256 111.793 132.356 111.9 132.449 112.02C132.822 112.487 133.009 113.067 133.009 113.76ZM138.91 117V106.94L141.59 106.52V117H138.91ZM141.91 103.94C141.91 104.407 141.75 104.8 141.43 105.12C141.11 105.44 140.717 105.6 140.25 105.6C139.797 105.6 139.41 105.44 139.09 105.12C138.77 104.8 138.61 104.407 138.61 103.94C138.61 103.473 138.77 103.08 139.09 102.76C139.423 102.44 139.823 102.28 140.29 102.28C140.743 102.28 141.123 102.44 141.43 102.76C141.75 103.08 141.91 103.473 141.91 103.94ZM151.718 113.76C151.718 114.293 151.612 114.78 151.398 115.22C151.185 115.647 150.885 116.02 150.498 116.34C150.125 116.647 149.665 116.887 149.118 117.06C148.585 117.233 147.992 117.32 147.338 117.32C146.085 117.32 144.705 116.927 143.198 116.14L144.158 114.18C144.358 114.3 144.592 114.433 144.858 114.58C145.138 114.713 145.425 114.84 145.718 114.96C146.025 115.067 146.332 115.16 146.638 115.24C146.958 115.307 147.265 115.34 147.558 115.34C147.945 115.34 148.265 115.233 148.518 115.02C148.785 114.793 148.918 114.513 148.918 114.18C148.918 113.833 148.792 113.567 148.538 113.38C148.285 113.18 147.885 113.027 147.338 112.92L146.138 112.7C145.792 112.633 145.438 112.5 145.078 112.3C144.718 112.1 144.445 111.887 144.258 111.66C144.072 111.433 143.925 111.153 143.818 110.82C143.725 110.487 143.678 110.153 143.678 109.82C143.678 109.327 143.772 108.873 143.958 108.46C144.145 108.047 144.412 107.693 144.758 107.4C145.105 107.107 145.518 106.88 145.998 106.72C146.492 106.56 147.038 106.48 147.638 106.48C148.465 106.48 149.165 106.587 149.738 106.8C150.312 107 150.832 107.213 151.298 107.44L150.418 109.24C149.912 108.973 149.458 108.787 149.058 108.68C148.672 108.56 148.285 108.5 147.898 108.5C147.512 108.5 147.198 108.593 146.958 108.78C146.718 108.953 146.598 109.193 146.598 109.5C146.598 109.767 146.692 109.98 146.878 110.14C147.078 110.287 147.412 110.42 147.878 110.54L149.118 110.86C149.438 110.94 149.705 111.027 149.918 111.12C150.132 111.2 150.312 111.293 150.458 111.4C150.618 111.493 150.752 111.593 150.858 111.7C150.965 111.793 151.065 111.9 151.158 112.02C151.532 112.487 151.718 113.067 151.718 113.76ZM166.18 111.84C166.18 112.72 166.073 113.473 165.86 114.1C165.66 114.727 165.34 115.293 164.9 115.8C164.513 116.24 164.053 116.587 163.52 116.84C162.986 117.093 162.32 117.22 161.52 117.22C160.826 117.22 160.193 117.093 159.62 116.84C159.06 116.587 158.58 116.233 158.18 115.78C157.78 115.313 157.466 114.753 157.24 114.1C157.026 113.447 156.92 112.72 156.92 111.92C156.92 111.12 157.026 110.393 157.24 109.74C157.466 109.073 157.78 108.507 158.18 108.04C158.58 107.56 159.06 107.193 159.62 106.94C160.193 106.687 160.826 106.56 161.52 106.56C162.973 106.56 164.133 107.073 165 108.1C165.413 108.58 165.713 109.113 165.9 109.7C166.086 110.287 166.18 111 166.18 111.84ZM163.26 111.82C163.26 110.46 163.08 109.547 162.72 109.08C162.44 108.72 162.053 108.54 161.56 108.54C161.24 108.54 160.953 108.633 160.7 108.82C160.46 109.007 160.286 109.26 160.18 109.58C160.086 109.847 160.013 110.167 159.96 110.54C159.92 110.913 159.9 111.353 159.9 111.86C159.9 113.047 160.013 113.907 160.24 114.44C160.36 114.72 160.546 114.933 160.8 115.08C161.066 115.213 161.333 115.28 161.6 115.28C162.186 115.28 162.606 115.007 162.86 114.46C163.126 113.913 163.26 113.033 163.26 111.82ZM173.619 117V110.34C173.619 109.753 173.552 109.36 173.419 109.16C173.299 108.947 173.066 108.84 172.719 108.84C172.452 108.84 172.152 108.927 171.819 109.1C171.486 109.26 171.166 109.48 170.859 109.76V117H168.179V109.58C168.179 109.14 168.146 108.72 168.079 108.32C168.026 107.907 167.939 107.527 167.819 107.18L170.199 106.5C170.452 106.94 170.579 107.367 170.579 107.78C170.779 107.633 170.966 107.5 171.139 107.38C171.326 107.26 171.532 107.14 171.759 107.02C172.026 106.873 172.319 106.767 172.639 106.7C172.972 106.62 173.292 106.58 173.599 106.58C174.172 106.58 174.686 106.72 175.139 107C175.592 107.267 175.899 107.62 176.059 108.06C176.192 108.42 176.259 108.907 176.259 109.52V117H173.619ZM189.093 107.88C188.8 108.147 188.506 108.34 188.213 108.46C187.92 108.58 187.586 108.64 187.213 108.64C187.08 108.64 186.946 108.633 186.813 108.62C186.693 108.607 186.593 108.593 186.513 108.58C186.713 108.82 186.86 109.073 186.953 109.34C187.06 109.607 187.113 109.913 187.113 110.26C187.113 110.7 187.02 111.107 186.833 111.48C186.646 111.853 186.38 112.173 186.033 112.44C185.7 112.707 185.3 112.92 184.833 113.08C184.38 113.227 183.88 113.3 183.333 113.3H183.153C183.113 113.3 183.04 113.293 182.933 113.28C182.586 113.44 182.32 113.587 182.133 113.72C181.96 113.84 181.873 113.973 181.873 114.12C181.873 114.28 182.02 114.36 182.313 114.36L183.753 114.38C184.526 114.393 185.146 114.467 185.613 114.6C186.08 114.733 186.493 114.967 186.853 115.3C187.44 115.847 187.733 116.573 187.733 117.48C187.733 118.307 187.46 119.013 186.913 119.6C186.46 120.08 185.873 120.42 185.153 120.62C184.433 120.82 183.673 120.92 182.873 120.92C182.14 120.92 181.426 120.84 180.733 120.68C180.04 120.533 179.46 120.247 178.993 119.82C178.433 119.3 178.153 118.693 178.153 118C178.153 117.72 178.18 117.5 178.233 117.34C178.286 117.193 178.34 117.067 178.393 116.96H180.873C180.82 117.08 180.786 117.18 180.773 117.26C180.76 117.353 180.753 117.473 180.753 117.62C180.753 118.033 180.913 118.347 181.233 118.56C181.566 118.773 182.046 118.88 182.673 118.88C183.02 118.88 183.333 118.853 183.613 118.8C183.893 118.76 184.14 118.673 184.353 118.54C184.553 118.42 184.713 118.267 184.833 118.08C184.953 117.907 185.013 117.713 185.013 117.5C185.013 117.033 184.833 116.72 184.473 116.56C184.113 116.387 183.666 116.293 183.133 116.28L181.993 116.26C180.82 116.247 180 116.14 179.533 115.94C179.293 115.847 179.1 115.687 178.953 115.46C178.82 115.233 178.753 114.947 178.753 114.6C178.753 114.44 178.773 114.28 178.813 114.12C178.853 113.96 178.933 113.807 179.053 113.66C179.186 113.513 179.373 113.373 179.613 113.24C179.866 113.107 180.206 112.987 180.633 112.88C179.166 112.507 178.433 111.56 178.433 110.04C178.433 109.52 178.533 109.047 178.733 108.62C178.946 108.193 179.24 107.833 179.613 107.54C179.986 107.233 180.44 107 180.973 106.84C181.506 106.667 182.1 106.58 182.753 106.58C183.046 106.58 183.333 106.6 183.613 106.64C183.893 106.68 184.22 106.747 184.593 106.84C184.873 106.907 185.106 106.96 185.293 107C185.493 107.04 185.68 107.06 185.853 107.06C186.226 107.06 186.593 106.987 186.953 106.84C187.326 106.68 187.666 106.46 187.973 106.18L189.093 107.88ZM184.353 110.06C184.353 109.58 184.206 109.207 183.913 108.94C183.633 108.673 183.24 108.54 182.733 108.54C182.226 108.54 181.833 108.673 181.553 108.94C181.273 109.207 181.133 109.58 181.133 110.06C181.133 110.58 181.28 110.953 181.573 111.18C181.866 111.407 182.246 111.52 182.713 111.52C183.806 111.52 184.353 111.033 184.353 110.06ZM198.287 111.84C198.287 112.72 198.181 113.473 197.967 114.1C197.767 114.727 197.447 115.293 197.007 115.8C196.621 116.24 196.161 116.587 195.627 116.84C195.094 117.093 194.427 117.22 193.627 117.22C192.934 117.22 192.301 117.093 191.727 116.84C191.167 116.587 190.687 116.233 190.287 115.78C189.887 115.313 189.574 114.753 189.347 114.1C189.134 113.447 189.027 112.72 189.027 111.92C189.027 111.12 189.134 110.393 189.347 109.74C189.574 109.073 189.887 108.507 190.287 108.04C190.687 107.56 191.167 107.193 191.727 106.94C192.301 106.687 192.934 106.56 193.627 106.56C195.081 106.56 196.241 107.073 197.107 108.1C197.521 108.58 197.821 109.113 198.007 109.7C198.194 110.287 198.287 111 198.287 111.84ZM195.367 111.82C195.367 110.46 195.187 109.547 194.827 109.08C194.547 108.72 194.161 108.54 193.667 108.54C193.347 108.54 193.061 108.633 192.807 108.82C192.567 109.007 192.394 109.26 192.287 109.58C192.194 109.847 192.121 110.167 192.067 110.54C192.027 110.913 192.007 111.353 192.007 111.86C192.007 113.047 192.121 113.907 192.347 114.44C192.467 114.72 192.654 114.933 192.907 115.08C193.174 115.213 193.441 115.28 193.707 115.28C194.294 115.28 194.714 115.007 194.967 114.46C195.234 113.913 195.367 113.033 195.367 111.82ZM200.287 117V106.94L202.967 106.52V117H200.287ZM203.287 103.94C203.287 104.407 203.127 104.8 202.807 105.12C202.487 105.44 202.093 105.6 201.627 105.6C201.173 105.6 200.787 105.44 200.467 105.12C200.147 104.8 199.987 104.407 199.987 103.94C199.987 103.473 200.147 103.08 200.467 102.76C200.8 102.44 201.2 102.28 201.667 102.28C202.12 102.28 202.5 102.44 202.807 102.76C203.127 103.08 203.287 103.473 203.287 103.94ZM211.11 117V110.34C211.11 109.753 211.044 109.36 210.91 109.16C210.79 108.947 210.557 108.84 210.21 108.84C209.944 108.84 209.644 108.927 209.31 109.1C208.977 109.26 208.657 109.48 208.35 109.76V117H205.67V109.58C205.67 109.14 205.637 108.72 205.57 108.32C205.517 107.907 205.43 107.527 205.31 107.18L207.69 106.5C207.944 106.94 208.07 107.367 208.07 107.78C208.27 107.633 208.457 107.5 208.63 107.38C208.817 107.26 209.024 107.14 209.25 107.02C209.517 106.873 209.81 106.767 210.13 106.7C210.464 106.62 210.784 106.58 211.09 106.58C211.664 106.58 212.177 106.72 212.63 107C213.084 107.267 213.39 107.62 213.55 108.06C213.684 108.42 213.75 108.907 213.75 109.52V117H211.11ZM226.585 107.88C226.291 108.147 225.998 108.34 225.705 108.46C225.411 108.58 225.078 108.64 224.705 108.64C224.571 108.64 224.438 108.633 224.305 108.62C224.185 108.607 224.085 108.593 224.005 108.58C224.205 108.82 224.351 109.073 224.445 109.34C224.551 109.607 224.605 109.913 224.605 110.26C224.605 110.7 224.511 111.107 224.325 111.48C224.138 111.853 223.871 112.173 223.525 112.44C223.191 112.707 222.791 112.92 222.325 113.08C221.871 113.227 221.371 113.3 220.825 113.3H220.645C220.605 113.3 220.531 113.293 220.425 113.28C220.078 113.44 219.811 113.587 219.625 113.72C219.451 113.84 219.365 113.973 219.365 114.12C219.365 114.28 219.511 114.36 219.805 114.36L221.245 114.38C222.018 114.393 222.638 114.467 223.105 114.6C223.571 114.733 223.985 114.967 224.345 115.3C224.931 115.847 225.225 116.573 225.225 117.48C225.225 118.307 224.951 119.013 224.405 119.6C223.951 120.08 223.365 120.42 222.645 120.62C221.925 120.82 221.165 120.92 220.365 120.92C219.631 120.92 218.918 120.84 218.225 120.68C217.531 120.533 216.951 120.247 216.485 119.82C215.925 119.3 215.645 118.693 215.645 118C215.645 117.72 215.671 117.5 215.725 117.34C215.778 117.193 215.831 117.067 215.885 116.96H218.365C218.311 117.08 218.278 117.18 218.265 117.26C218.251 117.353 218.245 117.473 218.245 117.62C218.245 118.033 218.405 118.347 218.725 118.56C219.058 118.773 219.538 118.88 220.165 118.88C220.511 118.88 220.825 118.853 221.105 118.8C221.385 118.76 221.631 118.673 221.845 118.54C222.045 118.42 222.205 118.267 222.325 118.08C222.445 117.907 222.505 117.713 222.505 117.5C222.505 117.033 222.325 116.72 221.965 116.56C221.605 116.387 221.158 116.293 220.625 116.28L219.485 116.26C218.311 116.247 217.491 116.14 217.025 115.94C216.785 115.847 216.591 115.687 216.445 115.46C216.311 115.233 216.245 114.947 216.245 114.6C216.245 114.44 216.265 114.28 216.305 114.12C216.345 113.96 216.425 113.807 216.545 113.66C216.678 113.513 216.865 113.373 217.105 113.24C217.358 113.107 217.698 112.987 218.125 112.88C216.658 112.507 215.925 111.56 215.925 110.04C215.925 109.52 216.025 109.047 216.225 108.62C216.438 108.193 216.731 107.833 217.105 107.54C217.478 107.233 217.931 107 218.465 106.84C218.998 106.667 219.591 106.58 220.245 106.58C220.538 106.58 220.825 106.6 221.105 106.64C221.385 106.68 221.711 106.747 222.085 106.84C222.365 106.907 222.598 106.96 222.785 107C222.985 107.04 223.171 107.06 223.345 107.06C223.718 107.06 224.085 106.987 224.445 106.84C224.818 106.68 225.158 106.46 225.465 106.18L226.585 107.88ZM221.845 110.06C221.845 109.58 221.698 109.207 221.405 108.94C221.125 108.673 220.731 108.54 220.225 108.54C219.718 108.54 219.325 108.673 219.045 108.94C218.765 109.207 218.625 109.58 218.625 110.06C218.625 110.58 218.771 110.953 219.065 111.18C219.358 111.407 219.738 111.52 220.205 111.52C221.298 111.52 221.845 111.033 221.845 110.06ZM230.534 115.54C230.534 115.78 230.487 116.013 230.394 116.24C230.301 116.453 230.174 116.64 230.014 116.8C229.854 116.96 229.667 117.087 229.454 117.18C229.241 117.273 229.014 117.32 228.774 117.32C228.281 117.32 227.861 117.147 227.514 116.8C227.181 116.453 227.014 116.033 227.014 115.54C227.014 115.06 227.181 114.653 227.514 114.32C227.861 113.973 228.274 113.8 228.754 113.8C229.247 113.8 229.667 113.973 230.014 114.32C230.361 114.653 230.534 115.06 230.534 115.54ZM107.562 146.3C107.562 146.753 107.555 147.127 107.542 147.42C107.542 147.7 107.529 147.94 107.502 148.14C107.489 148.327 107.469 148.487 107.442 148.62C107.429 148.753 107.402 148.887 107.362 149.02C107.255 149.447 107.089 149.833 106.862 150.18C106.635 150.527 106.369 150.833 106.062 151.1C105.769 151.38 105.449 151.613 105.102 151.8C104.769 152 104.442 152.16 104.122 152.28L102.822 150.84C103.182 150.613 103.509 150.347 103.802 150.04C104.109 149.733 104.322 149.44 104.442 149.16C104.495 149.04 104.542 148.907 104.582 148.76C104.622 148.613 104.649 148.447 104.662 148.26C104.689 148.06 104.702 147.827 104.702 147.56C104.715 147.293 104.722 146.973 104.722 146.6V135.1H107.562V146.3ZM118.819 143.84C118.819 144.72 118.713 145.473 118.499 146.1C118.299 146.727 117.979 147.293 117.539 147.8C117.153 148.24 116.693 148.587 116.159 148.84C115.626 149.093 114.959 149.22 114.159 149.22C113.466 149.22 112.833 149.093 112.259 148.84C111.699 148.587 111.219 148.233 110.819 147.78C110.419 147.313 110.106 146.753 109.879 146.1C109.666 145.447 109.559 144.72 109.559 143.92C109.559 143.12 109.666 142.393 109.879 141.74C110.106 141.073 110.419 140.507 110.819 140.04C111.219 139.56 111.699 139.193 112.259 138.94C112.833 138.687 113.466 138.56 114.159 138.56C115.613 138.56 116.773 139.073 117.639 140.1C118.053 140.58 118.353 141.113 118.539 141.7C118.726 142.287 118.819 143 118.819 143.84ZM115.899 143.82C115.899 142.46 115.719 141.547 115.359 141.08C115.079 140.72 114.693 140.54 114.199 140.54C113.879 140.54 113.593 140.633 113.339 140.82C113.099 141.007 112.926 141.26 112.819 141.58C112.726 141.847 112.653 142.167 112.599 142.54C112.559 142.913 112.539 143.353 112.539 143.86C112.539 145.047 112.653 145.907 112.879 146.44C112.999 146.72 113.186 146.933 113.439 147.08C113.706 147.213 113.973 147.28 114.239 147.28C114.826 147.28 115.246 147.007 115.499 146.46C115.766 145.913 115.899 145.033 115.899 143.82ZM120.819 149V138.94L123.499 138.52V149H120.819ZM123.819 135.94C123.819 136.407 123.659 136.8 123.339 137.12C123.019 137.44 122.625 137.6 122.159 137.6C121.705 137.6 121.319 137.44 120.999 137.12C120.679 136.8 120.519 136.407 120.519 135.94C120.519 135.473 120.679 135.08 120.999 134.76C121.332 134.44 121.732 134.28 122.199 134.28C122.652 134.28 123.032 134.44 123.339 134.76C123.659 135.08 123.819 135.473 123.819 135.94ZM131.642 149V142.34C131.642 141.753 131.576 141.36 131.442 141.16C131.322 140.947 131.089 140.84 130.742 140.84C130.476 140.84 130.176 140.927 129.842 141.1C129.509 141.26 129.189 141.48 128.882 141.76V149H126.202V141.58C126.202 141.14 126.169 140.72 126.102 140.32C126.049 139.907 125.962 139.527 125.842 139.18L128.222 138.5C128.476 138.94 128.602 139.367 128.602 139.78C128.802 139.633 128.989 139.5 129.162 139.38C129.349 139.26 129.556 139.14 129.782 139.02C130.049 138.873 130.342 138.767 130.662 138.7C130.996 138.62 131.316 138.58 131.622 138.58C132.196 138.58 132.709 138.72 133.162 139C133.616 139.267 133.922 139.62 134.082 140.06C134.216 140.42 134.282 140.907 134.282 141.52V149H131.642ZM146.609 149V142.34C146.609 141.753 146.542 141.36 146.409 141.16C146.289 140.947 146.055 140.84 145.709 140.84C145.442 140.84 145.142 140.927 144.809 141.1C144.475 141.26 144.155 141.48 143.849 141.76V149H141.169V141.58C141.169 141.14 141.135 140.72 141.069 140.32C141.015 139.907 140.929 139.527 140.809 139.18L143.189 138.5C143.442 138.94 143.569 139.367 143.569 139.78C143.769 139.633 143.955 139.5 144.129 139.38C144.315 139.26 144.522 139.14 144.749 139.02C145.015 138.873 145.309 138.767 145.629 138.7C145.962 138.62 146.282 138.58 146.589 138.58C147.162 138.58 147.675 138.72 148.129 139C148.582 139.267 148.889 139.62 149.049 140.06C149.182 140.42 149.249 140.907 149.249 141.52V149H146.609ZM160.503 143.84C160.503 144.72 160.396 145.473 160.183 146.1C159.983 146.727 159.663 147.293 159.223 147.8C158.836 148.24 158.376 148.587 157.843 148.84C157.31 149.093 156.643 149.22 155.843 149.22C155.15 149.22 154.516 149.093 153.943 148.84C153.383 148.587 152.903 148.233 152.503 147.78C152.103 147.313 151.79 146.753 151.563 146.1C151.35 145.447 151.243 144.72 151.243 143.92C151.243 143.12 151.35 142.393 151.563 141.74C151.79 141.073 152.103 140.507 152.503 140.04C152.903 139.56 153.383 139.193 153.943 138.94C154.516 138.687 155.15 138.56 155.843 138.56C157.296 138.56 158.456 139.073 159.323 140.1C159.736 140.58 160.036 141.113 160.223 141.7C160.41 142.287 160.503 143 160.503 143.84ZM157.583 143.82C157.583 142.46 157.403 141.547 157.043 141.08C156.763 140.72 156.376 140.54 155.883 140.54C155.563 140.54 155.276 140.633 155.023 140.82C154.783 141.007 154.61 141.26 154.503 141.58C154.41 141.847 154.336 142.167 154.283 142.54C154.243 142.913 154.223 143.353 154.223 143.86C154.223 145.047 154.336 145.907 154.563 146.44C154.683 146.72 154.87 146.933 155.123 147.08C155.39 147.213 155.656 147.28 155.923 147.28C156.51 147.28 156.93 147.007 157.183 146.46C157.45 145.913 157.583 145.033 157.583 143.82ZM172.065 149H169.605L168.685 145.48C168.578 145.067 168.471 144.64 168.365 144.2C168.258 143.747 168.171 143.347 168.105 143L167.945 141.98C167.931 142.087 167.918 142.187 167.905 142.28L167.865 142.54C167.851 142.62 167.831 142.72 167.805 142.84C167.778 142.96 167.745 143.113 167.705 143.3C167.651 143.527 167.585 143.793 167.505 144.1C167.438 144.407 167.365 144.733 167.285 145.08C167.205 145.413 167.118 145.74 167.025 146.06C166.945 146.38 166.878 146.66 166.825 146.9L166.305 149H163.805L161.005 138.94L163.665 138.64L164.505 142.58C164.558 142.847 164.618 143.147 164.685 143.48C164.751 143.8 164.811 144.113 164.865 144.42C164.918 144.727 164.965 145.007 165.005 145.26C165.045 145.5 165.071 145.667 165.085 145.76C165.111 145.56 165.151 145.32 165.205 145.04C165.258 144.747 165.318 144.44 165.385 144.12C165.451 143.787 165.518 143.453 165.585 143.12C165.665 142.787 165.745 142.48 165.825 142.2L166.785 138.76H169.305L170.125 142.14C170.218 142.567 170.305 142.98 170.385 143.38C170.478 143.78 170.558 144.14 170.625 144.46C170.691 144.78 170.745 145.06 170.785 145.3C170.838 145.527 170.871 145.68 170.885 145.76C170.898 145.653 170.918 145.48 170.945 145.24C170.985 145 171.031 144.727 171.085 144.42C171.138 144.1 171.191 143.767 171.245 143.42C171.311 143.073 171.378 142.74 171.445 142.42L172.225 138.76H174.985L172.065 149ZM178.844 144.58H176.804L176.204 135.26L179.404 134.8L178.844 144.58ZM179.484 147.6C179.484 148.067 179.318 148.46 178.984 148.78C178.664 149.1 178.271 149.26 177.804 149.26C177.351 149.26 176.964 149.1 176.644 148.78C176.338 148.46 176.184 148.067 176.184 147.6C176.184 147.133 176.344 146.74 176.664 146.42C176.984 146.1 177.378 145.94 177.844 145.94C178.298 145.94 178.684 146.1 179.004 146.42C179.324 146.74 179.484 147.133 179.484 147.6Z" fill="#006869"/>
<rect x="86" y="182" width="117" height="48" rx="16" fill="#008688"/>
<path d="M117.794 209.84C117.794 210.203 117.789 210.501 117.778 210.736C117.778 210.96 117.768 211.152 117.746 211.312C117.736 211.461 117.72 211.589 117.698 211.696C117.688 211.803 117.666 211.909 117.634 212.016C117.549 212.357 117.416 212.667 117.234 212.944C117.053 213.221 116.84 213.467 116.594 213.68C116.36 213.904 116.104 214.091 115.826 214.24C115.56 214.4 115.298 214.528 115.042 214.624L114.002 213.472C114.29 213.291 114.552 213.077 114.786 212.832C115.032 212.587 115.202 212.352 115.298 212.128C115.341 212.032 115.378 211.925 115.41 211.808C115.442 211.691 115.464 211.557 115.474 211.408C115.496 211.248 115.506 211.061 115.506 210.848C115.517 210.635 115.522 210.379 115.522 210.08V200.88H117.794V209.84ZM127.04 207.872C127.04 208.576 126.955 209.179 126.784 209.68C126.624 210.181 126.368 210.635 126.016 211.04C125.707 211.392 125.339 211.669 124.912 211.872C124.486 212.075 123.952 212.176 123.312 212.176C122.758 212.176 122.251 212.075 121.792 211.872C121.344 211.669 120.96 211.387 120.64 211.024C120.32 210.651 120.07 210.203 119.888 209.68C119.718 209.157 119.632 208.576 119.632 207.936C119.632 207.296 119.718 206.715 119.888 206.192C120.07 205.659 120.32 205.205 120.64 204.832C120.96 204.448 121.344 204.155 121.792 203.952C122.251 203.749 122.758 203.648 123.312 203.648C124.475 203.648 125.403 204.059 126.096 204.88C126.427 205.264 126.667 205.691 126.816 206.16C126.966 206.629 127.04 207.2 127.04 207.872ZM124.704 207.856C124.704 206.768 124.56 206.037 124.272 205.664C124.048 205.376 123.739 205.232 123.344 205.232C123.088 205.232 122.859 205.307 122.656 205.456C122.464 205.605 122.326 205.808 122.24 206.064C122.166 206.277 122.107 206.533 122.064 206.832C122.032 207.131 122.016 207.483 122.016 207.888C122.016 208.837 122.107 209.525 122.288 209.952C122.384 210.176 122.534 210.347 122.736 210.464C122.95 210.571 123.163 210.624 123.376 210.624C123.846 210.624 124.182 210.405 124.384 209.968C124.598 209.531 124.704 208.827 124.704 207.856ZM128.88 212V203.952L131.024 203.616V212H128.88ZM131.28 201.552C131.28 201.925 131.152 202.24 130.896 202.496C130.64 202.752 130.325 202.88 129.952 202.88C129.589 202.88 129.28 202.752 129.024 202.496C128.768 202.24 128.64 201.925 128.64 201.552C128.64 201.179 128.768 200.864 129.024 200.608C129.29 200.352 129.61 200.224 129.984 200.224C130.346 200.224 130.65 200.352 130.896 200.608C131.152 200.864 131.28 201.179 131.28 201.552ZM137.779 212V206.672C137.779 206.203 137.725 205.888 137.619 205.728C137.523 205.557 137.336 205.472 137.059 205.472C136.845 205.472 136.605 205.541 136.339 205.68C136.072 205.808 135.816 205.984 135.571 206.208V212H133.427V206.064C133.427 205.712 133.4 205.376 133.347 205.056C133.304 204.725 133.235 204.421 133.139 204.144L135.043 203.6C135.245 203.952 135.347 204.293 135.347 204.624C135.507 204.507 135.656 204.4 135.795 204.304C135.944 204.208 136.109 204.112 136.291 204.016C136.504 203.899 136.739 203.813 136.995 203.76C137.261 203.696 137.517 203.664 137.763 203.664C138.221 203.664 138.632 203.776 138.995 204C139.357 204.213 139.603 204.496 139.731 204.848C139.837 205.136 139.891 205.525 139.891 206.016V212H137.779ZM151.272 212L149.368 207.744C149.208 207.392 149.048 207.04 148.888 206.688C148.738 206.325 148.594 205.984 148.456 205.664C148.317 205.333 148.194 205.035 148.088 204.768C147.992 204.512 147.917 204.309 147.864 204.16C147.885 204.363 147.901 204.592 147.912 204.848C147.922 205.115 147.933 205.387 147.944 205.664C147.954 205.941 147.96 206.219 147.96 206.496C147.97 206.763 147.976 207.013 147.976 207.248L148.04 212H145.88V200.88H148.36L150.488 205.328C150.765 205.925 151.005 206.501 151.208 207.056C151.421 207.6 151.586 208.075 151.704 208.48C151.682 208.267 151.661 208.027 151.64 207.76C151.618 207.483 151.597 207.205 151.576 206.928C151.565 206.64 151.554 206.368 151.544 206.112C151.533 205.845 151.528 205.616 151.528 205.424L151.48 200.88H153.608V212H151.272ZM162.853 207.872C162.853 208.576 162.767 209.179 162.597 209.68C162.437 210.181 162.181 210.635 161.829 211.04C161.519 211.392 161.151 211.669 160.725 211.872C160.298 212.075 159.765 212.176 159.125 212.176C158.57 212.176 158.063 212.075 157.605 211.872C157.157 211.669 156.773 211.387 156.453 211.024C156.133 210.651 155.882 210.203 155.701 209.68C155.53 209.157 155.445 208.576 155.445 207.936C155.445 207.296 155.53 206.715 155.701 206.192C155.882 205.659 156.133 205.205 156.453 204.832C156.773 204.448 157.157 204.155 157.605 203.952C158.063 203.749 158.57 203.648 159.125 203.648C160.287 203.648 161.215 204.059 161.909 204.88C162.239 205.264 162.479 205.691 162.629 206.16C162.778 206.629 162.853 207.2 162.853 207.872ZM160.517 207.856C160.517 206.768 160.373 206.037 160.085 205.664C159.861 205.376 159.551 205.232 159.157 205.232C158.901 205.232 158.671 205.307 158.469 205.456C158.277 205.605 158.138 205.808 158.053 206.064C157.978 206.277 157.919 206.533 157.877 206.832C157.845 207.131 157.829 207.483 157.829 207.888C157.829 208.837 157.919 209.525 158.101 209.952C158.197 210.176 158.346 210.347 158.549 210.464C158.762 210.571 158.975 210.624 159.189 210.624C159.658 210.624 159.994 210.405 160.197 209.968C160.41 209.531 160.517 208.827 160.517 207.856ZM172.342 212H170.374L169.638 209.184C169.553 208.853 169.467 208.512 169.382 208.16C169.297 207.797 169.227 207.477 169.174 207.2L169.046 206.384C169.035 206.469 169.025 206.549 169.014 206.624L168.982 206.832C168.971 206.896 168.955 206.976 168.934 207.072C168.913 207.168 168.886 207.291 168.854 207.44C168.811 207.621 168.758 207.835 168.694 208.08C168.641 208.325 168.582 208.587 168.518 208.864C168.454 209.131 168.385 209.392 168.31 209.648C168.246 209.904 168.193 210.128 168.15 210.32L167.734 212H165.734L163.494 203.952L165.622 203.712L166.294 206.864C166.337 207.077 166.385 207.317 166.438 207.584C166.491 207.84 166.539 208.091 166.582 208.336C166.625 208.581 166.662 208.805 166.694 209.008C166.726 209.2 166.747 209.333 166.758 209.408C166.779 209.248 166.811 209.056 166.854 208.832C166.897 208.597 166.945 208.352 166.998 208.096C167.051 207.829 167.105 207.563 167.158 207.296C167.222 207.029 167.286 206.784 167.35 206.56L168.118 203.808H170.134L170.79 206.512C170.865 206.853 170.934 207.184 170.998 207.504C171.073 207.824 171.137 208.112 171.19 208.368C171.243 208.624 171.286 208.848 171.318 209.04C171.361 209.221 171.387 209.344 171.398 209.408C171.409 209.323 171.425 209.184 171.446 208.992C171.478 208.8 171.515 208.581 171.558 208.336C171.601 208.08 171.643 207.813 171.686 207.536C171.739 207.259 171.793 206.992 171.846 206.736L172.47 203.808H174.678L172.342 212Z" fill="#F3F4F6"/>
</svg>
